# xmcd CD database file
#
# Track frame offsets:
#	150
#	21206
#	47307
#	62154
#	100727
#	120692
#	149986
#	176532
#	191497
#	199961
#	223940
#	246751
#	275563
#	293753
#	317948
#
# Disc length: 4724 seconds
#
# Revision: 0
# Processed by: cddbd v1.5.2PL0 Copyright (c) Steve Scherf et al.
# Submitted via: CDex 1.70beta2
#
DISCID=ef12720f
DTITLE=Kenny Wayne Shepherd - 10 Days Out
DYEAR=2007
DGENRE=Blues
TTITLE0=Prison Blues(w Cootie Stark)
TTITLE1=Potato Patch(w Jerry 'Boogie' McCain)
TTITLE2=Honky Tonk [w Buddy Flett)
TTITLE3=The Thrill Is Gone [w B B King)
TTITLE4=Tina Marie [w Bryan Lee)
TTITLE5=Born In Louisiana [w Clarence 'Gatemouth' Brown)
TTITLE6=Chapel Hill Boogie [w John Dee Holeman)
TTITLE7=Tears Come Rollin Down [w Henry Townsend)
TTITLE8=Knoxville Rag [w Etta Baker)
TTITLE9=Big Daddy Boogie [w Neal 'Big Daddy' Pattman)
TTITLE10=U-Haul [w Cootie Stark)
TTITLE11=Red Rooster [w Henry Gray and Howlin' Wolf Band)
TTITLE12=Sittin On Top Of The World [w Hubert Sumlin and Howlin Wolf Band)
TTITLE13=Spoonful George [w George Wild Child Butler and Howlin Wolf Band)
TTITLE14=Grindin Man [w Pinetop Perkins and Muddy Waters Band)
EXTD=YEAR: 2007
EXTT0=
EXTT1=
EXTT2=
EXTT3=
EXTT4=
EXTT5=
EXTT6=
EXTT7=
EXTT8=
EXTT9=
EXTT10=
EXTT11=
EXTT12=
EXTT13=
EXTT14=
PLAYORDER=
